<svg width="1739" height="387" viewBox="0 0 1739 387" fill="none" xmlns="http://www.w3.org/2000/svg">
<path d="M653.475 243.041V217.65L729.891 99.2422H769.441V216.918H792.635V243.041H769.441V276H739.168V243.041H653.475ZM685.945 216.918H739.656V135.375H737.703L685.945 215.697V216.918ZM883.211 278.441C840.73 278.441 815.34 245.482 815.34 187.621C815.34 130.004 840.73 96.8008 883.211 96.8008C925.447 96.8008 951.082 130.004 951.082 187.621C951.082 245.482 925.691 278.441 883.211 278.441ZM883.211 251.83C905.428 251.83 919.1 230.102 919.1 187.621C919.1 145.385 905.184 123.168 883.211 123.168C861.238 123.168 847.322 145.385 847.322 187.621C847.322 230.102 860.994 251.83 883.211 251.83ZM974.52 243.041V217.65L1050.94 99.2422H1090.49V216.918H1113.68V243.041H1090.49V276H1060.21V243.041H974.52ZM1006.99 216.918H1060.7V135.375H1058.75L1006.99 215.697V216.918Z" fill="#3A7BDF"/>
<path d="M660.574 350.953V307.184H667.898V312.398H668.367C669.539 310.113 671.883 306.773 677.508 306.773C684.832 306.773 690.633 312.516 690.633 323.121C690.633 333.609 685.008 339.586 677.508 339.586C672 339.586 669.539 336.305 668.367 333.961H668.074V350.953H660.574ZM667.898 323.062C667.898 329.273 670.594 333.434 675.457 333.434C680.379 333.434 683.016 329.098 683.016 323.062C683.016 317.145 680.438 312.867 675.457 312.867C670.594 312.867 667.898 316.91 667.898 323.062ZM695.027 330.035C695.027 322.887 700.945 320.777 706.863 320.426C709.061 320.279 713.631 320.016 715.008 319.957V317.438C715.008 314.273 712.957 312.457 709.266 312.457C705.926 312.457 703.875 313.98 703.289 316.266H696.082C696.609 310.875 701.473 306.773 709.441 306.773C715.477 306.773 722.449 309.234 722.449 317.73V339H715.301V334.605H715.066C713.66 337.301 710.672 339.645 705.691 339.645C699.598 339.645 695.027 336.305 695.027 330.035ZM702.234 329.977C702.234 332.73 704.461 334.137 707.625 334.137C712.137 334.137 715.066 331.148 715.066 327.574V324.938C713.689 325.025 709.529 325.318 708.035 325.406C704.461 325.699 702.234 327.164 702.234 329.977ZM743.367 351.598C734.93 351.598 729.598 347.848 729.07 341.871H736.512C737.039 344.625 739.676 345.973 743.484 345.973C747.938 345.973 750.867 344.039 750.867 339.352V333.258H750.516C749.344 335.602 746.824 338.531 741.316 338.531C733.992 338.531 728.191 333.199 728.191 322.828C728.191 312.34 733.992 306.773 741.375 306.773C747 306.773 749.344 310.113 750.516 312.398H750.867V307.184H758.25V339.527C758.25 347.672 751.98 351.598 743.367 351.598ZM743.367 332.672C748.172 332.672 750.926 329.039 750.926 322.945C750.926 316.91 748.23 312.867 743.367 312.867C738.387 312.867 735.809 317.145 735.809 322.945C735.809 328.805 738.445 332.672 743.367 332.672ZM779.52 339.645C769.91 339.645 764.051 333.258 764.051 323.297C764.051 313.453 770.027 306.773 779.109 306.773C786.902 306.773 793.641 311.637 793.641 322.828V325.172H771.434C771.521 330.592 774.715 333.785 779.578 333.785C782.859 333.785 785.086 332.379 786.023 330.504H793.348C792 336.012 786.902 339.645 779.52 339.645ZM771.492 320.074H786.492C786.434 315.738 783.562 312.574 779.227 312.574C774.715 312.574 771.727 316.002 771.492 320.074ZM821.18 320.367V339H813.68V307.184H820.828V312.574H821.238C822.703 309 825.926 306.773 830.672 306.773C837.293 306.773 841.629 311.109 841.57 318.727V339H834.129V319.898C834.129 315.621 831.844 313.102 827.918 313.102C823.934 313.102 821.18 315.738 821.18 320.367ZM862.605 339.645C853.348 339.645 847.371 333.082 847.371 323.238C847.371 313.336 853.348 306.773 862.605 306.773C871.922 306.773 877.84 313.336 877.84 323.238C877.84 333.082 871.922 339.645 862.605 339.645ZM862.664 333.668C867.762 333.668 870.281 329.039 870.281 323.18C870.281 317.379 867.762 312.691 862.664 312.691C857.449 312.691 854.93 317.379 854.93 323.18C854.93 329.039 857.449 333.668 862.664 333.668ZM899.52 307.184V312.926H893.25V329.449C893.25 332.496 894.773 333.141 896.648 333.141C897.527 333.141 898.992 333.082 899.93 333.023V339.117C899.051 339.293 897.586 339.41 895.711 339.41C890.086 339.41 885.75 336.656 885.809 330.68V312.926H881.238V307.184H885.809V299.566H893.25V307.184H899.52ZM935.613 307.184V312.926H929.051V339H921.551V312.926H916.805V307.184H921.551V304.137C921.551 297.926 925.418 294.586 931.512 294.586C933.27 294.586 934.852 294.762 936.258 295.055V300.973C935.027 300.797 934.09 300.738 933.562 300.738C930.516 300.738 929.051 301.969 929.051 304.84V307.184H935.613ZM953.602 339.645C944.344 339.645 938.367 333.082 938.367 323.238C938.367 313.336 944.344 306.773 953.602 306.773C962.918 306.773 968.836 313.336 968.836 323.238C968.836 333.082 962.918 339.645 953.602 339.645ZM953.66 333.668C958.758 333.668 961.277 329.039 961.277 323.18C961.277 317.379 958.758 312.691 953.66 312.691C948.445 312.691 945.926 317.379 945.926 323.18C945.926 329.039 948.445 333.668 953.66 333.668ZM994.969 325.641V307.184H1002.41V339H995.203V333.375H994.852C993.387 336.891 990.047 339.41 985.301 339.41C979.031 339.41 974.695 335.074 974.637 327.457V307.184H982.137V326.285C982.137 330.328 984.539 332.906 988.172 332.906C991.453 332.906 994.969 330.504 994.969 325.641ZM1017.06 320.367V339H1009.56V307.184H1016.71V312.574H1017.12C1018.58 309 1021.8 306.773 1026.55 306.773C1033.17 306.773 1037.51 311.109 1037.45 318.727V339H1030.01V319.898C1030.01 315.621 1027.72 313.102 1023.8 313.102C1019.81 313.102 1017.06 315.738 1017.06 320.367ZM1056.43 339.586C1048.93 339.586 1043.31 333.609 1043.31 323.121C1043.31 312.516 1049.11 306.773 1056.49 306.773C1062.12 306.773 1064.46 310.113 1065.57 312.398H1065.87V296.578H1073.31V339H1065.98V333.961H1065.57C1064.4 336.305 1061.94 339.586 1056.43 339.586ZM1058.48 333.434C1063.29 333.434 1066.04 329.273 1066.04 323.062C1066.04 316.91 1063.35 312.867 1058.48 312.867C1053.5 312.867 1050.93 317.145 1050.93 323.062C1050.93 329.098 1053.56 333.434 1058.48 333.434ZM1089.95 296.578L1089.3 326.52H1082.68L1081.98 296.578H1089.95ZM1086.02 339.469C1083.5 339.469 1081.45 337.418 1081.45 334.898C1081.45 332.438 1083.5 330.387 1086.02 330.387C1088.43 330.387 1090.54 332.438 1090.54 334.898C1090.54 337.418 1088.43 339.469 1086.02 339.469Z" fill="#43618F"/>
<path d="M570.777 144.19C565.477 134.891 551.46 126.174 515.213 135.884C503.115 127.38 488.963 122.409 474.291 121.51C459.619 120.61 444.984 123.816 431.972 130.78C418.96 137.744 408.066 148.201 400.469 161.019C392.873 173.837 388.863 188.528 388.875 203.5C388.875 205.553 388.948 207.589 389.093 209.608C362.47 236.744 362.924 253.459 368.248 262.81C373.254 271.604 383.248 275.359 396.165 275.359C404.387 275.359 413.802 273.837 423.838 271.159C435.938 279.651 450.088 284.61 464.757 285.501C479.425 286.391 494.053 283.179 507.058 276.211C520.064 269.244 530.951 258.786 538.541 245.97C546.132 233.154 550.138 218.468 550.125 203.5C550.125 201.438 550.049 199.402 549.898 197.375C561.916 185.073 569.937 173.242 572.574 163.156C574.942 154.242 572.902 147.895 570.777 144.19ZM469.5 141.906C483.196 141.925 496.482 146.672 507.188 155.373C517.894 164.074 525.389 176.214 528.449 189.813C516.531 200.703 500.574 212.559 481.191 223.911C462.932 234.596 444.615 243.04 428.205 248.421C419.368 239.976 413.225 229.021 410.573 216.978C407.922 204.934 408.884 192.356 413.335 180.876C417.786 169.396 425.52 159.543 435.535 152.594C445.549 145.646 457.383 141.922 469.5 141.906ZM385.675 252.51C385.163 251.594 385.532 245.478 394.636 233.938C397.464 241.128 401.279 247.873 405.966 253.973C391.495 256.205 386.229 253.468 385.675 252.51ZM469.5 265.094C463.062 265.095 456.665 264.043 450.553 261.98C464.546 256.178 478.133 249.407 491.218 241.714C504.254 234.141 516.761 225.66 528.65 216.332C525.747 230.122 518.294 242.483 507.531 251.356C496.768 260.228 483.346 265.077 469.5 265.094ZM553.123 157.861C552.048 161.95 549.084 167.16 544.397 173.088C541.569 165.888 537.752 159.134 533.059 153.027C546.354 151 552.519 153.027 553.342 154.49C553.484 154.738 553.661 155.833 553.123 157.861Z" fill="#C8DEFF"/>
<path d="M319.028 154.714L301.921 147.792L295.7 128.758C295.312 127.57 294.605 126.544 293.675 125.819C292.744 125.094 291.636 124.705 290.5 124.705C289.364 124.705 288.256 125.094 287.325 125.819C286.395 126.544 285.688 127.57 285.3 128.758L279.079 147.792L261.972 154.714C260.905 155.146 259.983 155.933 259.331 156.968C258.679 158.003 258.329 159.236 258.329 160.5C258.329 161.764 258.679 162.997 259.331 164.032C259.983 165.068 260.905 165.854 261.972 166.286L279.079 173.208L285.3 192.242C285.688 193.43 286.395 194.456 287.325 195.181C288.256 195.906 289.364 196.295 290.5 196.295C291.636 196.295 292.744 195.906 293.675 195.181C294.605 194.456 295.312 193.43 295.7 192.242L301.921 173.208L319.028 166.286C320.095 165.854 321.017 165.068 321.669 164.032C322.321 162.997 322.671 161.764 322.671 160.5C322.671 159.236 322.321 158.003 321.669 156.968C321.017 155.933 320.095 155.146 319.028 154.714ZM299.156 166.44C298.395 166.747 297.704 167.236 297.132 167.873C296.56 168.51 296.12 169.279 295.844 170.125L290.5 186.481L285.156 170.125C284.88 169.279 284.44 168.51 283.868 167.873C283.296 167.236 282.605 166.747 281.844 166.44L267.145 160.5L281.844 154.553C282.605 154.247 283.296 153.758 283.868 153.121C284.44 152.484 284.88 151.715 285.156 150.869L290.5 134.513L295.844 150.869C296.12 151.715 296.56 152.484 297.132 153.121C297.704 153.758 298.395 154.247 299.156 154.553L313.855 160.5L299.156 166.44Z" fill="#9DBDEF" stroke="#9DBDEF" stroke-width="5"/>
<path fill-rule="evenodd" clip-rule="evenodd" d="M1436 224.55C1429.29 224.55 1422.64 225.79 1416.44 228.2C1410.25 230.61 1404.61 234.142 1399.87 238.594C1395.12 243.047 1391.36 248.333 1388.79 254.15C1386.22 259.968 1384.9 266.203 1384.9 272.5C1384.9 278.797 1386.22 285.032 1388.79 290.85C1391.36 296.667 1395.12 301.953 1399.87 306.406C1404.61 310.858 1410.25 314.39 1416.44 316.8C1422.64 319.21 1429.29 320.45 1436 320.45C1449.55 320.45 1462.55 315.398 1472.13 306.406C1481.72 297.414 1487.1 285.217 1487.1 272.5C1487.1 259.783 1481.72 247.587 1472.13 238.594C1462.55 229.602 1449.55 224.55 1436 224.55ZM1370.3 272.5C1370.3 256.15 1377.22 240.469 1389.54 228.907C1401.86 217.345 1418.58 210.85 1436 210.85C1453.42 210.85 1470.14 217.345 1482.46 228.907C1494.78 240.469 1501.7 256.15 1501.7 272.5C1501.7 288.851 1494.78 304.532 1482.46 316.093C1470.14 327.655 1453.42 334.15 1436 334.15C1418.58 334.15 1401.86 327.655 1389.54 316.093C1377.22 304.532 1370.3 288.851 1370.3 272.5Z" fill="#C8DEFF"/>
<path fill-rule="evenodd" clip-rule="evenodd" d="M1485.68 237.771C1486.65 239.344 1486.91 241.213 1486.41 242.966C1485.9 244.719 1484.68 246.214 1483 247.121C1478.07 249.792 1471.59 251.834 1464.39 253.265C1463.44 253.474 1462.46 253.503 1461.5 253.35C1460.55 253.198 1459.63 252.868 1458.81 252.38C1457.99 251.891 1457.28 251.253 1456.73 250.504C1456.17 249.755 1455.78 248.91 1455.58 248.018C1455.38 247.126 1455.37 246.205 1455.55 245.309C1455.73 244.414 1456.11 243.561 1456.64 242.802C1457.18 242.043 1457.88 241.392 1458.69 240.888C1459.5 240.384 1460.41 240.037 1461.36 239.867C1467.73 238.599 1472.58 236.942 1475.71 235.25C1476.54 234.8 1477.46 234.509 1478.41 234.392C1479.36 234.275 1480.33 234.335 1481.25 234.568C1482.18 234.802 1483.05 235.204 1483.81 235.752C1484.57 236.301 1485.21 236.991 1485.68 237.771ZM1387.76 238.935C1388.63 237.312 1390.15 236.079 1391.99 235.508C1393.82 234.936 1395.83 235.072 1397.56 235.887C1405.1 239.435 1419.15 242.155 1436 242.155C1437.94 242.155 1439.79 242.876 1441.16 244.161C1442.53 245.445 1443.3 247.188 1443.3 249.005C1443.3 250.821 1442.53 252.564 1441.16 253.848C1439.79 255.133 1437.94 255.855 1436 255.855C1418.03 255.855 1401.41 253.019 1391.02 248.135C1390.16 247.732 1389.39 247.174 1388.77 246.493C1388.14 245.813 1387.66 245.023 1387.36 244.168C1387.05 243.314 1386.93 242.412 1387 241.514C1387.07 240.616 1387.33 239.74 1387.76 238.935ZM1492.61 261.656C1493.03 262.464 1493.28 263.342 1493.34 264.24C1493.4 265.138 1493.27 266.038 1492.96 266.889C1492.65 267.74 1492.17 268.525 1491.53 269.2C1490.9 269.875 1490.13 270.426 1489.27 270.822C1477.6 276.185 1457.24 279.35 1435.03 279.35C1414.08 279.35 1394.92 276.542 1383.08 271.801C1382.2 271.449 1381.4 270.937 1380.73 270.294C1380.06 269.652 1379.53 268.891 1379.17 268.057C1378.81 267.222 1378.63 266.33 1378.64 265.43C1378.65 264.531 1378.85 263.642 1379.23 262.814C1379.6 261.987 1380.15 261.236 1380.83 260.607C1381.52 259.977 1382.33 259.48 1383.22 259.144C1384.11 258.809 1385.06 258.64 1386.02 258.649C1386.98 258.659 1387.92 258.845 1388.81 259.197C1398.08 262.91 1415 265.65 1435.03 265.65C1456.43 265.65 1474.14 262.52 1482.84 258.526C1484.58 257.726 1486.59 257.607 1488.42 258.194C1490.25 258.781 1491.76 260.026 1492.61 261.656ZM1492.61 285.145C1493.03 285.953 1493.28 286.831 1493.34 287.729C1493.4 288.626 1493.27 289.526 1492.96 290.378C1492.65 291.229 1492.17 292.014 1491.53 292.689C1490.9 293.364 1490.13 293.915 1489.27 294.31C1483.04 297.174 1472.87 299.236 1462.21 300.612C1450.76 302.068 1439.22 302.811 1427.66 302.839C1425.72 302.839 1423.86 302.117 1422.49 300.832C1421.13 299.548 1420.36 297.805 1420.36 295.989C1420.36 294.172 1421.13 292.43 1422.49 291.145C1423.86 289.86 1425.72 289.139 1427.66 289.139C1438.55 289.112 1449.42 288.412 1460.21 287.043C1470.76 285.673 1478.89 283.823 1482.84 282.008C1483.7 281.612 1484.64 281.379 1485.6 281.323C1486.55 281.266 1487.51 281.387 1488.42 281.678C1489.33 281.97 1490.16 282.426 1490.88 283.021C1491.6 283.615 1492.19 284.337 1492.61 285.145ZM1379.23 286.303C1379.6 285.475 1380.15 284.725 1380.83 284.095C1381.52 283.466 1382.33 282.969 1383.22 282.633C1384.11 282.297 1385.06 282.129 1386.02 282.138C1386.98 282.147 1387.92 282.333 1388.81 282.686C1392.01 283.967 1396.25 285.173 1401.38 286.193C1402.33 286.371 1403.23 286.723 1404.03 287.228C1404.83 287.734 1405.51 288.383 1406.05 289.139C1406.58 289.895 1406.94 290.742 1407.12 291.632C1407.3 292.521 1407.29 293.435 1407.1 294.321C1406.9 295.207 1406.51 296.047 1405.97 296.793C1405.42 297.539 1404.72 298.176 1403.91 298.667C1403.1 299.157 1402.19 299.492 1401.24 299.652C1400.29 299.812 1399.32 299.794 1398.38 299.599C1392.62 298.455 1387.41 297.016 1383.08 295.283C1381.3 294.571 1379.9 293.225 1379.17 291.541C1378.45 289.858 1378.47 287.973 1379.23 286.303Z" fill="#C8DEFF"/>
<path fill-rule="evenodd" clip-rule="evenodd" d="M1413.06 295.009C1412.63 294.99 1412.21 295.052 1411.81 295.191C1411.41 295.329 1411.05 295.543 1410.74 295.817C1410.44 296.091 1410.19 296.422 1410.03 296.787C1409.86 297.153 1409.77 297.547 1409.77 297.945C1409.77 298.342 1409.86 298.736 1410.03 299.102C1410.19 299.467 1410.44 299.798 1410.74 300.072C1411.05 300.346 1411.41 300.56 1411.81 300.698C1412.21 300.837 1412.63 300.899 1413.06 300.88C1413.86 300.843 1414.62 300.518 1415.17 299.972C1415.73 299.425 1416.04 298.699 1416.04 297.945C1416.04 297.19 1415.73 296.464 1415.17 295.917C1414.62 295.371 1413.86 295.046 1413.06 295.009ZM1395.33 297.941C1395.28 295.728 1395.71 293.528 1396.58 291.471C1397.45 289.413 1398.74 287.539 1400.4 285.958C1402.05 284.377 1404.02 283.121 1406.19 282.264C1408.37 281.406 1410.7 280.965 1413.06 280.965C1415.42 280.965 1417.75 281.406 1419.93 282.264C1422.1 283.121 1424.07 284.377 1425.72 285.958C1427.38 287.539 1428.67 289.413 1429.54 291.471C1430.41 293.528 1430.84 295.728 1430.79 297.941C1430.69 302.295 1428.78 306.44 1425.47 309.488C1422.16 312.535 1417.7 314.242 1413.06 314.242C1408.42 314.242 1403.96 312.535 1400.65 309.488C1397.34 306.44 1395.43 302.295 1395.33 297.941Z" fill="#C8DEFF"/>
<path d="M1244.03 289.287L1226.92 282.453L1220.7 263.66C1220.31 262.487 1219.6 261.474 1218.67 260.758C1217.74 260.042 1216.64 259.658 1215.5 259.658C1214.36 259.658 1213.26 260.042 1212.33 260.758C1211.39 261.474 1210.69 262.487 1210.3 263.66L1204.08 282.453L1186.97 289.287C1185.9 289.713 1184.98 290.49 1184.33 291.512C1183.68 292.534 1183.33 293.752 1183.33 295C1183.33 296.248 1183.68 297.466 1184.33 298.488C1184.98 299.51 1185.9 300.287 1186.97 300.713L1204.08 307.547L1210.3 326.34C1210.69 327.513 1211.39 328.526 1212.33 329.242C1213.26 329.958 1214.36 330.342 1215.5 330.342C1216.64 330.342 1217.74 329.958 1218.67 329.242C1219.6 328.526 1220.31 327.513 1220.7 326.34L1226.92 307.547L1244.03 300.713C1245.1 300.287 1246.02 299.51 1246.67 298.488C1247.32 297.466 1247.67 296.248 1247.67 295C1247.67 293.752 1247.32 292.534 1246.67 291.512C1246.02 290.49 1245.1 289.713 1244.03 289.287ZM1224.16 300.865C1223.4 301.168 1222.7 301.651 1222.13 302.28C1221.56 302.908 1221.12 303.667 1220.84 304.503L1215.5 320.652L1210.16 304.503C1209.88 303.667 1209.44 302.908 1208.87 302.28C1208.3 301.651 1207.6 301.168 1206.84 300.865L1192.14 295L1206.84 289.129C1207.6 288.826 1208.3 288.343 1208.87 287.714C1209.44 287.086 1209.88 286.327 1210.16 285.491L1215.5 269.342L1220.84 285.491C1221.12 286.327 1221.56 287.086 1222.13 287.714C1222.7 288.343 1223.4 288.826 1224.16 289.129L1238.86 295L1224.16 300.865Z" fill="#9DBDEF" stroke="#9DBDEF" stroke-width="5"/>
<path d="M1343.38 160.5C1343.39 161.871 1342.97 163.212 1342.19 164.336C1341.41 165.459 1340.31 166.31 1339.03 166.77L1312.76 176.412L1303.21 202.924C1302.74 204.204 1301.89 205.307 1300.78 206.087C1299.67 206.866 1298.35 207.284 1297 207.284C1295.65 207.284 1294.33 206.866 1293.22 206.087C1292.11 205.307 1291.26 204.204 1290.79 202.924L1281.24 176.383L1254.97 166.77C1253.7 166.294 1252.61 165.439 1251.84 164.318C1251.07 163.198 1250.65 161.865 1250.65 160.5C1250.65 159.135 1251.07 157.802 1251.84 156.682C1252.61 155.561 1253.7 154.706 1254.97 154.23L1281.27 144.588L1290.79 118.076C1291.26 116.796 1292.11 115.693 1293.22 114.913C1294.33 114.134 1295.65 113.716 1297 113.716C1298.35 113.716 1299.67 114.134 1300.78 114.913C1301.89 115.693 1302.74 116.796 1303.21 118.076L1312.76 144.617L1339.03 154.23C1340.31 154.69 1341.41 155.541 1342.19 156.664C1342.97 157.788 1343.39 159.129 1343.38 160.5Z" fill="#A9CBFF"/>
<path d="M304.375 319.5C304.386 320.871 303.972 322.212 303.193 323.336C302.414 324.459 301.308 325.31 300.027 325.77L273.759 335.412L264.211 361.924C263.74 363.204 262.893 364.307 261.783 365.087C260.672 365.866 259.352 366.284 258 366.284C256.648 366.284 255.328 365.866 254.217 365.087C253.107 364.307 252.26 363.204 251.789 361.924L242.237 335.383L215.973 325.77C214.705 325.294 213.611 324.439 212.839 323.318C212.067 322.198 211.653 320.865 211.653 319.5C211.653 318.135 212.067 316.802 212.839 315.682C213.611 314.561 214.705 313.706 215.973 313.23L242.266 303.588L251.789 277.076C252.26 275.796 253.107 274.693 254.217 273.913C255.328 273.134 256.648 272.716 258 272.716C259.352 272.716 260.672 273.134 261.783 273.913C262.893 274.693 263.74 275.796 264.211 277.076L273.763 303.617L300.027 313.23C301.308 313.69 302.414 314.541 303.193 315.664C303.972 316.788 304.386 318.129 304.375 319.5Z" fill="#A9CBFF"/>
</svg>
